<mxfile host="app.diagrams.net" agent="Mozilla/5.0 (Windows NT 10.0; Win64; x64) AppleWebKit/537.36 (KHTML, like Gecko) Chrome/133.0.0.0 Safari/537.36" version="26.0.16">
  <diagram name="posts" id="wIEfYAHRVyxwYRLebSIu">
    <mxGraphModel dx="2876" dy="1103" grid="1" gridSize="10" guides="1" tooltips="1" connect="1" arrows="1" fold="1" page="1" pageScale="1" pageWidth="827" pageHeight="1169" math="0" shadow="0">
      <root>
        <mxCell id="0" />
        <mxCell id="1" parent="0" />
        <mxCell id="psup4gxkw2kxQKIWgr_w-123" style="edgeStyle=orthogonalEdgeStyle;rounded=0;orthogonalLoop=1;jettySize=auto;html=1;endArrow=none;startFill=0;" edge="1" parent="1" source="psup4gxkw2kxQKIWgr_w-132" target="psup4gxkw2kxQKIWgr_w-118">
          <mxGeometry relative="1" as="geometry">
            <Array as="points">
              <mxPoint x="-119.93" y="205" />
              <mxPoint x="-119.93" y="205" />
            </Array>
          </mxGeometry>
        </mxCell>
        <mxCell id="psup4gxkw2kxQKIWgr_w-147" value="(0,n)" style="edgeLabel;html=1;align=center;verticalAlign=middle;resizable=0;points=[];" vertex="1" connectable="0" parent="psup4gxkw2kxQKIWgr_w-123">
          <mxGeometry x="0.3143" relative="1" as="geometry">
            <mxPoint y="4" as="offset" />
          </mxGeometry>
        </mxCell>
        <mxCell id="psup4gxkw2kxQKIWgr_w-110" value="&lt;span style=&quot;font-size: 12px;&quot;&gt;nacionalities&lt;/span&gt;" style="swimlane;childLayout=stackLayout;horizontal=1;startSize=50;horizontalStack=0;rounded=1;fontSize=14;fontStyle=0;strokeWidth=2;resizeParent=0;resizeLast=1;shadow=0;dashed=0;align=center;arcSize=4;whiteSpace=wrap;html=1;" vertex="1" parent="1">
          <mxGeometry x="-199.93" y="40" width="160" height="90" as="geometry" />
        </mxCell>
        <mxCell id="psup4gxkw2kxQKIWgr_w-111" value="⚫ id UUID&lt;div&gt;⚪ country_name CHAR&lt;/div&gt;" style="align=left;strokeColor=none;fillColor=none;spacingLeft=4;spacingRight=4;fontSize=12;verticalAlign=top;resizable=0;rotatable=0;part=1;html=1;whiteSpace=wrap;" vertex="1" parent="psup4gxkw2kxQKIWgr_w-110">
          <mxGeometry y="50" width="160" height="40" as="geometry" />
        </mxCell>
        <mxCell id="psup4gxkw2kxQKIWgr_w-124" style="edgeStyle=orthogonalEdgeStyle;rounded=0;orthogonalLoop=1;jettySize=auto;html=1;endArrow=none;startFill=0;" edge="1" parent="1" source="psup4gxkw2kxQKIWgr_w-120" target="psup4gxkw2kxQKIWgr_w-114">
          <mxGeometry relative="1" as="geometry">
            <Array as="points" />
          </mxGeometry>
        </mxCell>
        <mxCell id="psup4gxkw2kxQKIWgr_w-137" value="(0,n)" style="edgeLabel;html=1;align=center;verticalAlign=middle;resizable=0;points=[];" vertex="1" connectable="0" parent="psup4gxkw2kxQKIWgr_w-124">
          <mxGeometry x="0.6331" relative="1" as="geometry">
            <mxPoint x="1" as="offset" />
          </mxGeometry>
        </mxCell>
        <mxCell id="psup4gxkw2kxQKIWgr_w-112" value="&lt;span style=&quot;font-size: 12px;&quot;&gt;categories&lt;/span&gt;" style="swimlane;childLayout=stackLayout;horizontal=1;startSize=50;horizontalStack=0;rounded=1;fontSize=14;fontStyle=0;strokeWidth=2;resizeParent=0;resizeLast=1;shadow=0;dashed=0;align=center;arcSize=4;whiteSpace=wrap;html=1;" vertex="1" parent="1">
          <mxGeometry x="-800" y="505" width="160" height="110" as="geometry" />
        </mxCell>
        <mxCell id="psup4gxkw2kxQKIWgr_w-113" value="⚫ id UUID&lt;div&gt;⚪ name CHAR&lt;/div&gt;&lt;div&gt;⚪ description CHAR&lt;/div&gt;" style="align=left;strokeColor=none;fillColor=none;spacingLeft=4;spacingRight=4;fontSize=12;verticalAlign=top;resizable=0;rotatable=0;part=1;html=1;whiteSpace=wrap;" vertex="1" parent="psup4gxkw2kxQKIWgr_w-112">
          <mxGeometry y="50" width="160" height="60" as="geometry" />
        </mxCell>
        <mxCell id="psup4gxkw2kxQKIWgr_w-125" style="edgeStyle=orthogonalEdgeStyle;rounded=0;orthogonalLoop=1;jettySize=auto;html=1;endArrow=none;startFill=0;exitX=1;exitY=0.5;exitDx=0;exitDy=0;" edge="1" parent="1" source="psup4gxkw2kxQKIWgr_w-140" target="psup4gxkw2kxQKIWgr_w-118">
          <mxGeometry relative="1" as="geometry">
            <mxPoint x="-230.00246376811555" y="359.9565217391304" as="sourcePoint" />
          </mxGeometry>
        </mxCell>
        <mxCell id="psup4gxkw2kxQKIWgr_w-143" value="(1,1)" style="edgeLabel;html=1;align=center;verticalAlign=middle;resizable=0;points=[];" vertex="1" connectable="0" parent="psup4gxkw2kxQKIWgr_w-125">
          <mxGeometry x="0.36" relative="1" as="geometry">
            <mxPoint x="1" y="-1" as="offset" />
          </mxGeometry>
        </mxCell>
        <mxCell id="psup4gxkw2kxQKIWgr_w-130" style="edgeStyle=orthogonalEdgeStyle;rounded=0;orthogonalLoop=1;jettySize=auto;html=1;endArrow=none;startFill=0;" edge="1" parent="1" source="psup4gxkw2kxQKIWgr_w-114" target="psup4gxkw2kxQKIWgr_w-128">
          <mxGeometry relative="1" as="geometry" />
        </mxCell>
        <mxCell id="psup4gxkw2kxQKIWgr_w-144" value="(0,n)" style="edgeLabel;html=1;align=center;verticalAlign=middle;resizable=0;points=[];" vertex="1" connectable="0" parent="psup4gxkw2kxQKIWgr_w-130">
          <mxGeometry x="-0.8596" relative="1" as="geometry">
            <mxPoint y="-2" as="offset" />
          </mxGeometry>
        </mxCell>
        <mxCell id="psup4gxkw2kxQKIWgr_w-145" value="(1,1)" style="edgeLabel;html=1;align=center;verticalAlign=middle;resizable=0;points=[];" vertex="1" connectable="0" parent="psup4gxkw2kxQKIWgr_w-130">
          <mxGeometry x="0.8611" y="-1" relative="1" as="geometry">
            <mxPoint x="-2" y="1" as="offset" />
          </mxGeometry>
        </mxCell>
        <mxCell id="psup4gxkw2kxQKIWgr_w-114" value="&lt;span style=&quot;font-size: 12px;&quot;&gt;books&lt;/span&gt;" style="swimlane;childLayout=stackLayout;horizontal=1;startSize=50;horizontalStack=0;rounded=1;fontSize=14;fontStyle=0;strokeWidth=2;resizeParent=0;resizeLast=1;shadow=0;dashed=0;align=center;arcSize=4;whiteSpace=wrap;html=1;" vertex="1" parent="1">
          <mxGeometry x="-560" y="291.25" width="160" height="137.5" as="geometry" />
        </mxCell>
        <mxCell id="psup4gxkw2kxQKIWgr_w-115" value="&lt;div&gt;⚫ id UUID&lt;div&gt;⚪ title CHAR&lt;/div&gt;&lt;/div&gt;&lt;div&gt;⚪ published_at DATE&lt;/div&gt;&lt;div&gt;⚪ price DECIMAL&lt;/div&gt;&lt;div&gt;⚪ pages INT&lt;/div&gt;" style="align=left;strokeColor=none;fillColor=none;spacingLeft=4;spacingRight=4;fontSize=12;verticalAlign=top;resizable=0;rotatable=0;part=1;html=1;whiteSpace=wrap;" vertex="1" parent="psup4gxkw2kxQKIWgr_w-114">
          <mxGeometry y="50" width="160" height="87.5" as="geometry" />
        </mxCell>
        <mxCell id="psup4gxkw2kxQKIWgr_w-122" style="edgeStyle=orthogonalEdgeStyle;rounded=0;orthogonalLoop=1;jettySize=auto;html=1;endArrow=none;startFill=0;" edge="1" parent="1" source="psup4gxkw2kxQKIWgr_w-135" target="psup4gxkw2kxQKIWgr_w-118">
          <mxGeometry relative="1" as="geometry">
            <Array as="points" />
          </mxGeometry>
        </mxCell>
        <mxCell id="psup4gxkw2kxQKIWgr_w-148" value="(0,n)" style="edgeLabel;html=1;align=center;verticalAlign=middle;resizable=0;points=[];" vertex="1" connectable="0" parent="psup4gxkw2kxQKIWgr_w-122">
          <mxGeometry x="0.9565" relative="1" as="geometry">
            <mxPoint y="6" as="offset" />
          </mxGeometry>
        </mxCell>
        <mxCell id="psup4gxkw2kxQKIWgr_w-116" value="&lt;span style=&quot;font-size: 12px;&quot;&gt;address&lt;/span&gt;" style="swimlane;childLayout=stackLayout;horizontal=1;startSize=50;horizontalStack=0;rounded=1;fontSize=14;fontStyle=0;strokeWidth=2;resizeParent=0;resizeLast=1;shadow=0;dashed=0;align=center;arcSize=4;whiteSpace=wrap;html=1;" vertex="1" parent="1">
          <mxGeometry x="-370" y="530" width="160" height="180" as="geometry" />
        </mxCell>
        <mxCell id="psup4gxkw2kxQKIWgr_w-117" value="⚫ id UUID&lt;div&gt;⚪ street_name&lt;span style=&quot;background-color: transparent; color: light-dark(rgb(0, 0, 0), rgb(255, 255, 255));&quot;&gt;&amp;nbsp;&lt;/span&gt;&lt;span style=&quot;background-color: transparent; color: light-dark(rgb(0, 0, 0), rgb(255, 255, 255));&quot;&gt;CHAR&lt;/span&gt;&lt;/div&gt;&lt;div&gt;⚪ street_number INT&lt;/div&gt;&lt;div&gt;⚪ complement&lt;span style=&quot;background-color: transparent; color: light-dark(rgb(0, 0, 0), rgb(255, 255, 255));&quot;&gt;&amp;nbsp;&lt;/span&gt;&lt;span style=&quot;background-color: transparent; color: light-dark(rgb(0, 0, 0), rgb(255, 255, 255));&quot;&gt;CHAR&lt;/span&gt;&lt;/div&gt;&lt;div&gt;⚪ neighboorhood&lt;span style=&quot;background-color: transparent; color: light-dark(rgb(0, 0, 0), rgb(255, 255, 255));&quot;&gt;&amp;nbsp;&lt;/span&gt;&lt;span style=&quot;background-color: transparent; color: light-dark(rgb(0, 0, 0), rgb(255, 255, 255));&quot;&gt;CHAR&lt;/span&gt;&lt;/div&gt;&lt;div&gt;⚪ cep&lt;span style=&quot;background-color: transparent; color: light-dark(rgb(0, 0, 0), rgb(255, 255, 255));&quot;&gt;&amp;nbsp;&lt;/span&gt;&lt;span style=&quot;background-color: transparent; color: light-dark(rgb(0, 0, 0), rgb(255, 255, 255));&quot;&gt;CHAR&lt;/span&gt;&lt;/div&gt;&lt;div&gt;⚪ city&lt;span style=&quot;background-color: transparent; color: light-dark(rgb(0, 0, 0), rgb(255, 255, 255));&quot;&gt;&amp;nbsp;&lt;/span&gt;&lt;span style=&quot;background-color: transparent; color: light-dark(rgb(0, 0, 0), rgb(255, 255, 255));&quot;&gt;CHAR&lt;/span&gt;&lt;/div&gt;&lt;div&gt;⚪ state CHAR&lt;/div&gt;" style="align=left;strokeColor=none;fillColor=none;spacingLeft=4;spacingRight=4;fontSize=12;verticalAlign=top;resizable=0;rotatable=0;part=1;html=1;whiteSpace=wrap;" vertex="1" parent="psup4gxkw2kxQKIWgr_w-116">
          <mxGeometry y="50" width="160" height="130" as="geometry" />
        </mxCell>
        <mxCell id="psup4gxkw2kxQKIWgr_w-118" value="&lt;span style=&quot;font-size: 12px;&quot;&gt;authors&lt;/span&gt;" style="swimlane;childLayout=stackLayout;horizontal=1;startSize=50;horizontalStack=0;rounded=1;fontSize=14;fontStyle=0;strokeWidth=2;resizeParent=0;resizeLast=1;shadow=0;dashed=0;align=center;arcSize=4;whiteSpace=wrap;html=1;" vertex="1" parent="1">
          <mxGeometry x="-199.93" y="300" width="160" height="120" as="geometry" />
        </mxCell>
        <mxCell id="psup4gxkw2kxQKIWgr_w-119" value="⚫ id UUID&lt;div&gt;⚪ cpf&lt;span style=&quot;background-color: transparent; color: light-dark(rgb(0, 0, 0), rgb(255, 255, 255));&quot;&gt;&amp;nbsp;&lt;/span&gt;&lt;span style=&quot;background-color: transparent; color: light-dark(rgb(0, 0, 0), rgb(255, 255, 255));&quot;&gt;CHAR&lt;/span&gt;&lt;/div&gt;&lt;div&gt;⚪ fullname&lt;span style=&quot;background-color: transparent; color: light-dark(rgb(0, 0, 0), rgb(255, 255, 255));&quot;&gt;&amp;nbsp;&lt;/span&gt;&lt;span style=&quot;background-color: transparent; color: light-dark(rgb(0, 0, 0), rgb(255, 255, 255));&quot;&gt;CHAR&lt;/span&gt;&lt;/div&gt;&lt;div&gt;⚪ birthdate DATE&lt;/div&gt;&lt;div&gt;&lt;br&gt;&lt;/div&gt;" style="align=left;strokeColor=none;fillColor=none;spacingLeft=4;spacingRight=4;fontSize=12;verticalAlign=top;resizable=0;rotatable=0;part=1;html=1;whiteSpace=wrap;" vertex="1" parent="psup4gxkw2kxQKIWgr_w-118">
          <mxGeometry y="50" width="160" height="70" as="geometry" />
        </mxCell>
        <mxCell id="psup4gxkw2kxQKIWgr_w-126" value="" style="edgeStyle=orthogonalEdgeStyle;rounded=0;orthogonalLoop=1;jettySize=auto;html=1;endArrow=none;startFill=0;" edge="1" parent="1" source="psup4gxkw2kxQKIWgr_w-112" target="psup4gxkw2kxQKIWgr_w-120">
          <mxGeometry relative="1" as="geometry">
            <mxPoint x="-720" y="505" as="sourcePoint" />
            <mxPoint x="-560" y="360" as="targetPoint" />
            <Array as="points">
              <mxPoint x="-720" y="360" />
            </Array>
          </mxGeometry>
        </mxCell>
        <mxCell id="psup4gxkw2kxQKIWgr_w-136" value="(1,n)" style="edgeLabel;html=1;align=center;verticalAlign=middle;resizable=0;points=[];" vertex="1" connectable="0" parent="psup4gxkw2kxQKIWgr_w-126">
          <mxGeometry x="-0.8022" y="1" relative="1" as="geometry">
            <mxPoint as="offset" />
          </mxGeometry>
        </mxCell>
        <mxCell id="psup4gxkw2kxQKIWgr_w-127" value="" style="rounded=0;whiteSpace=wrap;html=1;" vertex="1" parent="1">
          <mxGeometry x="-780" y="326.25" width="120" height="67.5" as="geometry" />
        </mxCell>
        <mxCell id="psup4gxkw2kxQKIWgr_w-120" value="categorizes" style="rhombus;whiteSpace=wrap;html=1;" vertex="1" parent="1">
          <mxGeometry x="-780" y="326.25" width="120" height="67.5" as="geometry" />
        </mxCell>
        <mxCell id="psup4gxkw2kxQKIWgr_w-128" value="&lt;span style=&quot;font-size: 12px;&quot;&gt;publisher&lt;/span&gt;" style="swimlane;childLayout=stackLayout;horizontal=1;startSize=50;horizontalStack=0;rounded=1;fontSize=14;fontStyle=0;strokeWidth=2;resizeParent=0;resizeLast=1;shadow=0;dashed=0;align=center;arcSize=4;whiteSpace=wrap;html=1;" vertex="1" parent="1">
          <mxGeometry x="-560" y="40" width="160" height="90" as="geometry" />
        </mxCell>
        <mxCell id="psup4gxkw2kxQKIWgr_w-129" value="⚫ id UUID&lt;div&gt;⚪ name CHAR&lt;/div&gt;" style="align=left;strokeColor=none;fillColor=none;spacingLeft=4;spacingRight=4;fontSize=12;verticalAlign=top;resizable=0;rotatable=0;part=1;html=1;whiteSpace=wrap;" vertex="1" parent="psup4gxkw2kxQKIWgr_w-128">
          <mxGeometry y="50" width="160" height="40" as="geometry" />
        </mxCell>
        <mxCell id="psup4gxkw2kxQKIWgr_w-133" value="" style="edgeStyle=orthogonalEdgeStyle;rounded=0;orthogonalLoop=1;jettySize=auto;html=1;endArrow=none;startFill=0;" edge="1" parent="1" source="psup4gxkw2kxQKIWgr_w-110" target="psup4gxkw2kxQKIWgr_w-132">
          <mxGeometry relative="1" as="geometry">
            <mxPoint x="-119.93" y="170" as="sourcePoint" />
            <mxPoint x="-119.93" y="300" as="targetPoint" />
            <Array as="points" />
          </mxGeometry>
        </mxCell>
        <mxCell id="psup4gxkw2kxQKIWgr_w-146" value="(1,1)" style="edgeLabel;html=1;align=center;verticalAlign=middle;resizable=0;points=[];" vertex="1" connectable="0" parent="psup4gxkw2kxQKIWgr_w-133">
          <mxGeometry x="-0.6444" relative="1" as="geometry">
            <mxPoint y="1" as="offset" />
          </mxGeometry>
        </mxCell>
        <mxCell id="psup4gxkw2kxQKIWgr_w-132" value="belongs" style="rhombus;whiteSpace=wrap;html=1;" vertex="1" parent="1">
          <mxGeometry x="-179.93" y="190" width="120" height="60" as="geometry" />
        </mxCell>
        <mxCell id="psup4gxkw2kxQKIWgr_w-134" value="publishes" style="rhombus;whiteSpace=wrap;html=1;" vertex="1" parent="1">
          <mxGeometry x="-540" y="190" width="120" height="60" as="geometry" />
        </mxCell>
        <mxCell id="psup4gxkw2kxQKIWgr_w-141" value="" style="edgeStyle=orthogonalEdgeStyle;rounded=0;orthogonalLoop=1;jettySize=auto;html=1;endArrow=none;startFill=0;" edge="1" parent="1" source="psup4gxkw2kxQKIWgr_w-114" target="psup4gxkw2kxQKIWgr_w-140">
          <mxGeometry relative="1" as="geometry">
            <mxPoint x="-400" y="360" as="sourcePoint" />
            <mxPoint x="-240" y="360" as="targetPoint" />
          </mxGeometry>
        </mxCell>
        <mxCell id="psup4gxkw2kxQKIWgr_w-142" value="(0,n)" style="edgeLabel;html=1;align=center;verticalAlign=middle;resizable=0;points=[];" vertex="1" connectable="0" parent="psup4gxkw2kxQKIWgr_w-141">
          <mxGeometry x="0.296" relative="1" as="geometry">
            <mxPoint x="-18" y="-1" as="offset" />
          </mxGeometry>
        </mxCell>
        <mxCell id="psup4gxkw2kxQKIWgr_w-140" value="writes" style="rhombus;whiteSpace=wrap;html=1;" vertex="1" parent="1">
          <mxGeometry x="-350" y="330" width="100" height="60" as="geometry" />
        </mxCell>
        <mxCell id="psup4gxkw2kxQKIWgr_w-150" value="" style="edgeStyle=orthogonalEdgeStyle;rounded=0;orthogonalLoop=1;jettySize=auto;html=1;endArrow=none;startFill=0;" edge="1" parent="1" source="psup4gxkw2kxQKIWgr_w-116" target="psup4gxkw2kxQKIWgr_w-135">
          <mxGeometry relative="1" as="geometry">
            <mxPoint x="-210" y="620" as="sourcePoint" />
            <mxPoint x="-120" y="420" as="targetPoint" />
            <Array as="points">
              <mxPoint x="-120" y="620" />
            </Array>
          </mxGeometry>
        </mxCell>
        <mxCell id="psup4gxkw2kxQKIWgr_w-152" value="(1,1)" style="edgeLabel;html=1;align=center;verticalAlign=middle;resizable=0;points=[];" vertex="1" connectable="0" parent="psup4gxkw2kxQKIWgr_w-150">
          <mxGeometry x="-0.9368" y="2" relative="1" as="geometry">
            <mxPoint x="13" y="1" as="offset" />
          </mxGeometry>
        </mxCell>
        <mxCell id="psup4gxkw2kxQKIWgr_w-135" value="lives" style="rhombus;whiteSpace=wrap;html=1;" vertex="1" parent="1">
          <mxGeometry x="-154.93" y="600" width="70" height="40" as="geometry" />
        </mxCell>
      </root>
    </mxGraphModel>
  </diagram>
</mxfile>
